<svg width="14" height="14" viewBox="0 0 14 14" fill="none" xmlns="http://www.w3.org/2000/svg">
<path d="M0.999999 7.01465C0.999999 3.70094 3.68629 1.01465 7 1.01465C10.3137 1.01465 13 3.70094 13 7.01465C13 10.3284 10.3137 13.0146 7 13.0146C3.68629 13.0146 0.999999 10.3284 0.999999 7.01465Z" stroke="#7786D2"/>
<path fill-rule="evenodd" clip-rule="evenodd" d="M4.52514 8.62614C4.32988 8.8214 4.32988 9.13799 4.52514 9.33325C4.72041 9.52851 5.03699 9.52851 5.23225 9.33325L7.00003 7.56547L8.76778 9.33321C8.96305 9.52848 9.27963 9.52848 9.47489 9.33321C9.67015 9.13795 9.67015 8.82137 9.47489 8.62611L7.70714 6.85836L9.47489 5.09061C9.67015 4.89535 9.67015 4.57876 9.47489 4.3835C9.27963 4.18824 8.96305 4.18824 8.76778 4.3835L7.00003 6.15125L5.23225 4.38347C5.03699 4.18821 4.72041 4.1882 4.52514 4.38347C4.32988 4.57873 4.32988 4.89531 4.52514 5.09057L6.29293 6.85836L4.52514 8.62614Z" fill="#7786D2"/>
</svg>
