<svg width="14" height="14" viewBox="0 0 14 14" fill="none" xmlns="http://www.w3.org/2000/svg">
<rect width="14" height="14" fill="#E5E5E5"/>
<g id="Desktop / Search Form" clip-path="url(#clip0_0_1)">
<rect width="1920" height="1080" transform="translate(-682 -452)" fill="white"/>
<g id="BG">
<g id="Rectangle 5" filter="url(#filter0_f_0_1)">
<path d="M-279.453 -131.712C-208.767 -168.183 97.8459 -115.897 403.045 -143.604C519.215 -154.151 631.548 -167.401 741.047 -131.712C947.296 -64.4907 799.798 136.625 697.999 307.974C502.99 636.218 -254.318 192.768 -254.318 192.768C-254.318 -0.523807 -350.139 -95.2417 -279.453 -131.712Z" fill="url(#paint0_angular_0_1)"/>
</g>
</g>
<g id="Frame 277132237">
<rect x="-85" y="-89" width="734" height="334" rx="16" fill="white"/>
</g>
<g id="Component 2">
<g id="Frame 277132242">
<g id="Frame 277132241">
<g id="Frame 277132240">
<path id="Ellipse 8" d="M13 7C13 10.3137 10.3137 13 7 13C3.68629 13 1 10.3137 1 7C1 3.68629 3.68629 1 7 1C10.3137 1 13 3.68629 13 7Z" stroke="#374151"/>
</g>
</g>
</g>
</g>
</g>
<defs>
<filter id="filter0_f_0_1" x="-605.457" y="-455" width="1750.39" height="1184" filterUnits="userSpaceOnUse" color-interpolation-filters="sRGB">
<feFlood flood-opacity="0" result="BackgroundImageFix"/>
<feBlend mode="normal" in="SourceGraphic" in2="BackgroundImageFix" result="shape"/>
<feGaussianBlur stdDeviation="150" result="effect1_foregroundBlur_0_1"/>
</filter>
<radialGradient id="paint0_angular_0_1" cx="0" cy="0" r="1" gradientUnits="userSpaceOnUse" gradientTransform="translate(-5.74758 82.3555) rotate(66.8355) scale(368.149 688.957)">
<stop offset="0.0242743" stop-color="#ABE1C9"/>
<stop offset="0.446559" stop-color="#80CDD7"/>
<stop offset="0.625961" stop-color="#7C9CE5"/>
<stop offset="0.830113" stop-color="#7EA3E6" stop-opacity="0.22"/>
<stop offset="0.947316" stop-color="#CFEEBB" stop-opacity="0.881587"/>
</radialGradient>
<clipPath id="clip0_0_1">
<rect width="1920" height="1080" fill="white" transform="translate(-682 -452)"/>
</clipPath>
</defs>
</svg>
